<?xml version="1.0" encoding="UTF-8"?>
<svg version="1.1" xmlns="http://www.w3.org/2000/svg" width="1000" height="282">
<path d="M0 0 C330 0 660 0 1000 0 C1000 93.06 1000 186.12 1000 282 C670 282 340 282 0 282 C0 188.94 0 95.88 0 0 Z " fill="#FDFDFD" transform="translate(0,0)"/>
<path d="M0 0 C1.22983612 -0.00423477 2.45967224 -0.00846954 3.72677612 -0.01283264 C7.68896593 -0.0226775 11.65108703 -0.02301509 15.61328125 -0.01953125 C16.62594622 -0.01913094 16.62594622 -0.01913094 17.65906906 -0.01872253 C38.15054526 -0.00852711 58.51088984 0.21018966 78.92578125 2.16796875 C80.27320683 2.2881984 81.62070311 2.4076378 82.96826172 2.52636719 C100.73416351 4.11620819 118.18225606 6.7441224 135.67578125 10.23046875 C136.97733154 10.48790863 136.97733154 10.48790863 138.30517578 10.75054932 C140.7800238 11.24479962 143.25175011 11.7520638 145.72265625 12.265625 C146.45031189 12.41245224 147.17796753 12.55927948 147.92767334 12.71055603 C152.56047328 13.70047779 156.66906839 15.06585047 160.92578125 17.16796875 C163.75421186 22.82482996 160.80958391 31.75589865 158.9375 37.5 C150.12572249 60.73723568 150.12572249 60.73723568 142.92578125 65.16796875 C135.64330347 65.90855971 128.63454606 64.37119823 121.5 63.01953125 C119.97546405 62.73458542 118.45071076 62.45080079 116.92578125 62.16796875 C116.09062988 62.01110596 115.25547852 61.85424316 114.39501953 61.69262695 C105.65196707 60.13611604 96.86145451 59.2331473 88.02929688 58.36303711 C85.45762305 58.10861889 82.88703992 57.8447746 80.31640625 57.58007812 C61.54311589 55.68235701 42.87328757 54.99864417 24.0078125 55.03759766 C20.92833538 55.0429643 17.84900404 55.0376085 14.76953125 55.03125 C-2.04435869 55.02445536 -18.80962872 55.40568367 -35.51171875 57.48046875 C-36.57664551 57.60800537 -37.64157227 57.73554199 -38.73876953 57.86694336 C-55.02659444 59.85012702 -71.32656255 61.949044 -87.49487305 64.75585938 C-91.24670001 65.35529941 -94.27823431 65.63414228 -98.07421875 65.16796875 C-102.706933 61.4061755 -104.80256881 57.21285285 -107.07421875 51.85546875 C-107.41453125 51.0680127 -107.75484375 50.28055664 -108.10546875 49.46923828 C-116.94637029 28.56837588 -116.94637029 28.56837588 -116.07421875 18.16796875 C-113.78049069 14.93902761 -111.12673444 14.44941242 -107.3671875 13.6328125 C-106.23031494 13.38184814 -105.09344238 13.13088379 -103.92211914 12.87231445 C-102.11022095 12.49272583 -102.11022095 12.49272583 -100.26171875 12.10546875 C-99.0286499 11.84016357 -97.79558105 11.5748584 -96.52514648 11.30151367 C-89.52379221 9.81904274 -82.56520521 8.46367742 -75.4609375 7.58984375 C-72.88742362 7.26926763 -70.34090913 6.90510281 -67.78125 6.49609375 C-53.27187659 4.18567443 -38.69523926 2.59306717 -24.07421875 1.16796875 C-23.28425003 1.08316757 -22.49428131 0.99836639 -21.68037415 0.91099548 C-14.44199081 0.17761231 -7.27228132 0.00764675 0 0 Z " fill="#E9532A" transform="translate(117.07421875,146.83203125)"/>
<path d="M0 0 C0.74926758 0.14002441 1.49853516 0.28004883 2.27050781 0.42431641 C20.9163919 3.99409501 38.40573002 10.94865163 54.9375 20.25 C55.64745117 20.63760498 56.35740234 21.02520996 57.08886719 21.42456055 C60.4555758 23.42804898 61.84618329 24.4613224 62.94140625 28.296875 C62.96074219 29.18890625 62.98007813 30.0809375 63 31 C40.68509071 51.30907475 9.07601401 63.85360485 -21 65 C-21.72509766 65.03254883 -22.45019531 65.06509766 -23.19726562 65.09863281 C-59.79081731 66.56533792 -93.72601888 55.16988952 -122 32 C-123 31 -123 31 -123.33227539 28.65405273 C-123 26 -123 26 -121.19702148 24.17602539 C-115.00946015 20.13653052 -108.74922636 16.58500444 -102.0625 13.4375 C-101.06323486 12.96570313 -100.06396973 12.49390625 -99.03442383 12.0078125 C-68.99193072 -1.85244646 -32.55145106 -6.44887238 0 0 Z " fill="#E9532A" transform="translate(170,216)"/>
<path d="M0 0 C1.093125 0.23589844 2.18625 0.47179687 3.3125 0.71484375 C37.47145048 8.07429243 73.23901008 9.57193375 108.0625 10.46484375 C108.0625 28.28484375 108.0625 46.10484375 108.0625 64.46484375 C85.31816283 64.73034185 63.63496632 64.17391081 41.0625 61.46484375 C38.73571892 61.19885249 36.40889708 60.9332176 34.08203125 60.66796875 C31.92942414 60.41499142 29.77706372 60.15990279 27.625 59.90234375 C26.66625977 59.78785889 25.70751953 59.67337402 24.71972656 59.55541992 C19.35902567 58.87545328 14.29153155 57.81604308 9.0625 56.46484375 C7.04632811 56.1612503 5.0249894 55.8901167 3 55.65234375 C-3.76219908 54.71683255 -10.43860662 53.46454336 -17.125 52.08984375 C-18.64975952 51.79436646 -18.64975952 51.79436646 -20.20532227 51.49291992 C-21.16237061 51.29029541 -22.11941895 51.0876709 -23.10546875 50.87890625 C-23.96422607 50.70311035 -24.8229834 50.52731445 -25.70776367 50.34619141 C-28.51484953 49.23663486 -29.45163798 48.06562203 -30.9375 45.46484375 C-31.61719231 38.90156484 -30.07242521 33.57577897 -27.9375 27.40234375 C-27.6271582 26.48928467 -27.31681641 25.57622559 -26.99707031 24.63549805 C-17.2198604 -3.13712882 -17.2198604 -3.13712882 0 0 Z " fill="#96C22C" transform="translate(31.9375,69.53515625)"/>
<path d="M0 0 C28.20829158 0 28.20829158 0 39.3125 0.75 C40.29440308 0.81534943 40.29440308 0.81534943 41.29614258 0.88201904 C65.37899981 2.50883362 89.06729407 5.34268999 112.75 10.0625 C113.6177002 10.23412659 114.48540039 10.40575317 115.37939453 10.58258057 C117.85424255 11.07683087 120.32596886 11.58409505 122.796875 12.09765625 C123.52453064 12.24448349 124.25218628 12.39131073 125.00189209 12.54258728 C129.63469203 13.53250904 133.74328714 14.89788172 138 17 C140.82843061 22.65686121 137.88380266 31.5879299 136.01171875 37.33203125 C127.19994124 60.56926693 127.19994124 60.56926693 120 65 C112.71752222 65.74059096 105.70876481 64.20322948 98.57421875 62.8515625 C97.0497777 62.5661094 95.52501628 62.28236384 94 62 C93.14889648 61.84241211 92.29779297 61.68482422 91.42089844 61.52246094 C82.2841692 59.91195088 73.10097365 58.9279639 63.875 58 C62.60088257 57.87026794 62.60088257 57.87026794 61.30102539 57.73791504 C40.89268357 55.68494319 20.49576819 54.83090952 0 54 C0 36.18 0 18.36 0 0 Z " fill="#6A3085" transform="translate(140,147)"/>
<path d="M0 0 C1.17949219 -0.05994141 1.17949219 -0.05994141 2.3828125 -0.12109375 C6.04541628 0.69983468 8.4049048 2.72708765 10.875 5.4375 C12.81640625 8.6796875 12.81640625 8.6796875 14.4375 12.3125 C14.72705566 12.95872314 15.01661133 13.60494629 15.31494141 14.27075195 C24.80858355 35.98136428 24.80858355 35.98136428 23.875 46.4375 C20.53784995 51.29236761 15.81159751 51.72356815 10.375 52.75 C9.36252197 52.95020752 8.35004395 53.15041504 7.30688477 53.35668945 C-18.55584601 58.31434797 -44.80804323 62.99665334 -71.125 64.4375 C-72.78000388 64.54602484 -74.43495177 64.65540692 -76.08984375 64.765625 C-89.15019896 65.5453477 -101.99121241 65.4375 -115.125 65.4375 C-115.125 47.6175 -115.125 29.7975 -115.125 11.4375 C-108.64875 11.19 -102.1725 10.9425 -95.5 10.6875 C-51.83752336 9.01590945 -51.83752336 9.01590945 -8.9375 1.37890625 C-5.84363387 0.61494955 -3.16597231 0.0888144 0 0 Z " fill="#01A0E3" transform="translate(255.125,68.5625)"/>
<path d="M0 0 C0 22.11 0 44.22 0 67 C-29.62453785 67 -55.0595567 60.41282775 -81.1875 46.875 C-81.79956299 46.56256348 -82.41162598 46.25012695 -83.04223633 45.92822266 C-87.01970035 43.80165773 -90.20949965 41.56533832 -93 38 C-93.08948666 34.71882257 -92.44569872 33.48729727 -90.2421875 31.078125 C-64.04512403 10.84672945 -33.2083714 0 0 0 Z " fill="#96C22D" transform="translate(140,0)"/>
<path d="M0 0 C10.37862417 0 19.89604984 0.14493244 30 2 C30.76521973 2.14002441 31.53043945 2.28004883 32.31884766 2.42431641 C50.9433377 5.9978139 68.4244642 12.95919212 84.9375 22.25 C85.64745117 22.63760498 86.35740234 23.02520996 87.08886719 23.42456055 C90.4555758 25.42804898 91.84618329 26.4613224 92.94140625 30.296875 C92.96074219 31.18890625 92.98007813 32.0809375 93 33 C76.52412404 47.99489834 56.33566821 57.19296515 35 63 C33.94941406 63.28875 32.89882812 63.5775 31.81640625 63.875 C20.92926672 66.54228507 11.72115926 66.44184956 0 67 C0 44.89 0 22.78 0 0 Z " fill="#6A3085" transform="translate(140,214)"/>
<path d="M0 0 C8.66239214 0 16.51826241 0.57936406 25 2 C26.02891357 2.16943115 26.02891357 2.16943115 27.07861328 2.34228516 C46.1193053 5.62941179 64.01248527 13.2073858 80 24 C80.59119629 24.38720215 81.18239258 24.7744043 81.79150391 25.17333984 C83.52644611 26.31877073 85.23491577 27.49462598 86.9375 28.6875 C87.91589844 29.37199219 88.89429688 30.05648438 89.90234375 30.76171875 C92 33 92 33 92.50390625 36.08984375 C92 39 92 39 90.8125 40.6171875 C83.6538746 45.58502668 75.88320894 49.34154385 68 53 C67.3385498 53.31114746 66.67709961 53.62229492 65.99560547 53.94287109 C57.13592844 58.05071936 48.14970983 60.96550539 38.6875 63.375 C37.22086914 63.75132568 37.22086914 63.75132568 35.72460938 64.13525391 C23.73721519 67.03119846 12.43174851 67 0 67 C0 44.89 0 22.78 0 0 Z " fill="#01A0E3" transform="translate(140,0)"/>
<path d="M0 0 C-0.53069061 3.82097239 -1.49701566 6.06171403 -4 9 C-4.92619141 8.67515625 -4.92619141 8.67515625 -5.87109375 8.34375 C-13.24454547 5.91960149 -19.2725696 4.7575232 -26.75 7.25 C-33.21860695 10.73309605 -36.42903796 14.17441744 -39 21 C-39.55008443 23.98249423 -39.62122798 26.84775096 -39.5625 29.875 C-39.55371826 30.66148926 -39.54493652 31.44797852 -39.53588867 32.25830078 C-39.2607004 40.12754891 -37.09980303 45.82071485 -31.5625 51.5 C-25.58999555 54.99610016 -19.82734708 55.88028763 -13 55 C-10.48377974 54.12180477 -8.18089495 53.09303169 -5.8125 51.875 C-4 51 -4 51 -2 51 C0.1875 53.8125 0.1875 53.8125 2 57 C1 60 1 60 -0.9609375 61.1328125 C-1.75757813 61.46023437 -2.55421875 61.78765625 -3.375 62.125 C-4.16648437 62.45757812 -4.95796875 62.79015625 -5.7734375 63.1328125 C-13.68679972 66.21485884 -23.93194216 66.39528012 -32.1640625 64.12890625 C-42.37715964 59.30693314 -47.97100603 51.34550943 -51.75 40.93359375 C-54.56009505 31.27389201 -53.42781106 21.42974257 -48.7109375 12.58203125 C-43.98761677 5.04239897 -37.65489768 -1.34791002 -28.765625 -3.5546875 C-18.56830597 -5.1966287 -9.35658794 -4.35732993 0 0 Z " fill="#4A4949" transform="translate(397,49)"/>
<path d="M0 0 C3.63 0 7.26 0 11 0 C15.84860251 10.25722597 20.49781981 20.58614248 25 31 C26.99586472 28.00620292 28.34263579 25.12854845 29.78515625 21.8359375 C30.31560547 20.63195312 30.84605469 19.42796875 31.39257812 18.1875 C31.9494969 16.91678854 32.5061342 15.64595368 33.0625 14.375 C34.15485918 11.88160574 35.25038571 9.38968267 36.34765625 6.8984375 C36.83242432 5.79161621 37.31719238 4.68479492 37.81665039 3.54443359 C39 1 39 1 40 0 C41.68608966 -0.07205511 43.37500659 -0.08386068 45.0625 -0.0625 C45.98160156 -0.05347656 46.90070313 -0.04445312 47.84765625 -0.03515625 C48.55792969 -0.02355469 49.26820313 -0.01195312 50 0 C49.31848194 5.05368908 47.22461046 9.41726167 45.17578125 14.03515625 C44.79189743 14.90965927 44.40801361 15.78416229 44.01249695 16.68516541 C43.19863153 18.53620023 42.38231358 20.38615839 41.5637207 22.23510742 C40.3287189 25.02585003 39.10220438 27.8201994 37.87695312 30.61523438 C23.98546627 62.20682811 23.98546627 62.20682811 15.3046875 66.28515625 C11.2417799 67.54534623 7.20301099 67.31005819 3 67 C3 64.03 3 61.06 3 58 C4.4025 57.7525 5.805 57.505 7.25 57.25 C12.79046366 55.99948783 14.66548434 53.85110237 17.9375 49.3125 C20.13287224 42.46810419 15.05954788 34.57362797 12.20703125 28.28125 C11.85613937 27.49729858 11.5052475 26.71334717 11.14372253 25.90563965 C10.0373313 23.43526716 8.92528795 20.96749682 7.8125 18.5 C6.68987127 16.00356187 5.56847255 13.50658591 4.44914246 11.00866699 C3.75571176 9.46189967 3.06022361 7.9160528 2.36250305 6.37121582 C0 1.11138862 0 1.11138862 0 0 Z " fill="#494848" transform="translate(458,47)"/>
<path d="M0 0 C16.17 0 32.34 0 49 0 C49 3.3 49 6.6 49 10 C42.73 10 36.46 10 30 10 C30 28.81 30 47.62 30 67 C26.04 67 22.08 67 18 67 C18 48.19 18 29.38 18 10 C12.06 10 6.12 10 0 10 C0 6.7 0 3.4 0 0 Z " fill="#4E4D4D" transform="translate(619,46)"/>
<path d="M0 0 C12.54 0 25.08 0 38 0 C38 2.97 38 5.94 38 9 C29.09 9 20.18 9 11 9 C11 28.14 11 47.28 11 67 C7.37 67 3.74 67 0 67 C0 44.89 0 22.78 0 0 Z " fill="#474646" transform="translate(521,46)"/>
<path d="M0 0 C12.54 0 25.08 0 38 0 C38 2.97 38 5.94 38 9 C29.09 9 20.18 9 11 9 C11 28.14 11 47.28 11 67 C7.37 67 3.74 67 0 67 C0 44.89 0 22.78 0 0 Z " fill="#464545" transform="translate(411,46)"/>
<path d="M0 0 C2.31 0 4.62 0 7 0 C7.33 10.89 7.66 21.78 8 33 C10.31 29.596875 12.62 26.19375 15 22.6875 C16.38527557 20.66697854 17.77168842 18.64723537 19.16015625 16.62890625 C21.32271605 13.47819487 23.45579213 10.32098289 25.49609375 7.08984375 C26.45708984 5.62224609 26.45708984 5.62224609 27.4375 4.125 C28.20900391 2.89136719 28.20900391 2.89136719 28.99609375 1.6328125 C31 0 31 0 39 0 C39 15.51 39 31.02 39 47 C36.69 47 34.38 47 32 47 C31.67 35.78 31.34 24.56 31 13 C29.06125 15.825625 27.1225 18.65125 25.125 21.5625 C24.48296631 22.4911084 23.84093262 23.4197168 23.17944336 24.37646484 C20.4105033 28.39382166 17.70575564 32.41922396 15.19140625 36.6015625 C14.76520996 37.29435303 14.33901367 37.98714355 13.89990234 38.70092773 C13.10946794 39.99608778 12.34150041 41.30531201 11.60009766 42.62915039 C10.51171875 44.38671875 10.51171875 44.38671875 8 47 C5.36 47 2.72 47 0 47 C0 31.49 0 15.98 0 0 Z " fill="#474646" transform="translate(570,65)"/>
<path d="M0 0 C3.4285785 2.02008139 6.20847086 4.41694171 8 8 C8.5917588 13.68998842 8.25047199 18.12429202 5 23 C1.75953856 25.93666818 -0.93514935 26.89954239 -5.3125 27.3125 C-10.59592627 26.86475201 -13.41484093 24.79651361 -16.875 20.875 C-18.91701206 15.65652474 -18.91245697 10.2571304 -16.8125 5.0625 C-12.14321582 -0.25082338 -6.84697587 -1.3523576 0 0 Z " fill="#545353" transform="translate(804,241)"/>
<path d="M0 0 C4.13098667 1.74419437 6.76586028 4.11094196 9 8 C9.83686066 13.05497653 9.584535 16.85180626 7.25 21.4375 C2.58082798 26.75516813 2.58082798 26.75516813 -1.04296875 27.31640625 C-6.51036578 27.60030794 -9.77510077 26.72193504 -14 23 C-16.91051059 19.5073873 -17.48216583 16.53663287 -17.28515625 11.98828125 C-16.66393995 7.65678678 -14.73896498 4.82590204 -11.875 1.625 C-7.86004209 -0.64432404 -4.51249257 -0.67399707 0 0 Z " fill="#545353" transform="translate(746,241)"/>
<path d="M0 0 C3.76644259 2.22158592 6.24004036 3.82202729 7.83984375 8.01953125 C8.3595051 14.46333204 7.59442402 18.69108009 3.33984375 23.83203125 C0.5599644 26.03276907 -2.19108247 26.17830803 -5.59765625 26.20703125 C-6.35949219 26.22121094 -7.12132812 26.23539062 -7.90625 26.25 C-11.82505634 25.84929017 -13.76175948 24.45112775 -16.41015625 21.58203125 C-18.82790281 16.66019003 -19.09705529 12.40870267 -18.16015625 7.01953125 C-16.5311749 3.76800722 -14.21382726 1.79222332 -11.28515625 -0.35546875 C-7.27252323 -1.53565493 -3.87917624 -1.7607111 0 0 Z " fill="#525151" transform="translate(402.16015625,240.98046875)"/>
<path d="M0 0 C3.94653918 1.73733518 7.13226645 3.66224411 9.5 7.3125 C10.69051009 13.71149174 10.71180996 18.49628179 7 24 C3.25183477 27.40742294 -0.68445522 27.56715484 -5.55859375 27.421875 C-9.61626006 26.72071026 -11.24739574 25.02786468 -14 22 C-16.53392369 17.7534934 -16.67976168 13.83386083 -16 9 C-12.46590575 1.9318115 -7.93859181 -1.07641923 0 0 Z " fill="#535252" transform="translate(379,193)"/>
<path d="M0 0 C5.28 0 10.56 0 16 0 C16 7.26 16 14.52 16 22 C16.66 22 17.32 22 18 22 C18 25.3 18 28.6 18 32 C17.01 32 16.02 32 15 32 C15 30.02 15 28.04 15 26 C9.06 26 3.12 26 -3 26 C-3 27.65 -3 29.3 -3 31 C-4.32 31 -5.64 31 -7 31 C-7 28.03 -7 25.06 -7 22 C-6.01 21.67 -5.02 21.34 -4 21 C-2.68 14.07 -1.36 7.14 0 0 Z " fill="#565555" transform="translate(443,194)"/>
<path d="M0 0 C11 0 11 0 14.6875 1.625 C17 4 17 4 17.5625 7 C16.96866089 10.16714189 16.16255135 11.65723603 14 14 C15.32 14.66 16.64 15.32 18 16 C18.36658354 22.47630923 18.36658354 22.47630923 16.6875 24.875 C11.30572785 28.4628481 7.15801989 27 0 27 C0 18.09 0 9.18 0 0 Z " fill="#5B5A5A" transform="translate(817,193)"/>
<path d="M0 0 C12 0 12 0 15.25 1.6875 C17 4 17 4 17.4375 6.5 C16.99663855 9.01920829 16.29854429 10.8087065 15 13 C15.515625 13.350625 16.03125 13.70125 16.5625 14.0625 C18 16 18 16 17.9375 19.5 C17 23 17 23 13 26 C8.71 26 4.42 26 0 26 C0 17.42 0 8.84 0 0 Z " fill="#515050" transform="translate(560,194)"/>
<path d="M0 0 C1.65 0 3.3 0 5 0 C6.98 5.94 8.96 11.88 11 18 C12.90266081 15.14600878 13.88271039 12.77907204 15 9.5625 C16.15464829 6.2473965 17.35614048 3.10425258 19 0 C20.65 0 22.3 0 24 0 C24.33896268 2.83275953 24.67129694 5.66604661 25 8.5 C25.09539063 9.29148438 25.19078125 10.08296875 25.2890625 10.8984375 C25.87107882 15.97029404 26.09367085 20.89493859 26 26 C24.68 26 23.36 26 22 26 C21.34 21.05 20.68 16.1 20 11 C17.95349609 14.06975587 17.00295435 16.69084152 15.875 20.1875 C15.52179687 21.27417969 15.16859375 22.36085938 14.8046875 23.48046875 C14.53914062 24.31191406 14.27359375 25.14335937 14 26 C12.35 26 10.7 26 9 26 C7.02 20.39 5.04 14.78 3 9 C2.34 14.61 1.68 20.22 1 26 C-0.32 26 -1.64 26 -3 26 C-2.58440013 17.1849081 -2.13031092 8.60397419 0 0 Z " fill="#525252" transform="translate(542,241)"/>
<path d="M0 0 C5.28 0 10.56 0 16 0 C16 1.32 16 2.64 16 4 C12.37 4 8.74 4 5 4 C5 5.98 5 7.96 5 10 C6.5778125 9.9071875 6.5778125 9.9071875 8.1875 9.8125 C12.25699071 10.01263889 14.00125735 10.26585229 17 13 C18.0625 16.375 18.0625 16.375 18 20 C16.23358828 22.80189446 14.96950178 24.51524911 12 26 C8.04 26 4.08 26 0 26 C0 17.42 0 8.84 0 0 Z " fill="#575656" transform="translate(399,147)"/>
<path d="M0 0 C6.27 0 12.54 0 19 0 C19 8.58 19 17.16 19 26 C17.02 26 15.04 26 13 26 C13 19.07 13 12.14 13 5 C10.36 5 7.72 5 5 5 C4.87882813 6.09699219 4.75765625 7.19398438 4.6328125 8.32421875 C4.46390637 9.77868823 4.29461519 11.23311304 4.125 12.6875 C4.00705078 13.7693457 4.00705078 13.7693457 3.88671875 14.87304688 C3.4103949 18.88515932 2.73699858 22.29975512 1 26 C-1.31 26 -3.62 26 -6 26 C-5.53980469 25.39800781 -5.07960938 24.79601562 -4.60546875 24.17578125 C-2.32238055 19.65959948 -1.92507816 15.17181083 -1.3125 10.1875 C-1.18294922 9.20845703 -1.05339844 8.22941406 -0.91992188 7.22070312 C-0.6030893 4.81512248 -0.30016631 2.40771703 0 0 Z " fill="#5B5A5A" transform="translate(763,241)"/>
<path d="M0 0 C1.32 0 2.64 0 4 0 C4.33 5.61 4.66 11.22 5 17 C5.78246094 15.85660156 6.56492187 14.71320313 7.37109375 13.53515625 C8.39317346 12.04423264 9.41531191 10.5533493 10.4375 9.0625 C10.95376953 8.30775391 11.47003906 7.55300781 12.00195312 6.77539062 C12.49501953 6.05673828 12.98808594 5.33808594 13.49609375 4.59765625 C14.17949829 3.60004272 14.17949829 3.60004272 14.87670898 2.58227539 C16 1 16 1 17 0 C18.65 0 20.3 0 22 0 C22 8.58 22 17.16 22 26 C20.35 26 18.7 26 17 26 C16.67 20.39 16.34 14.78 16 9 C14.14375 11.8153125 14.14375 11.8153125 12.25 14.6875 C6.63364055 23.20564516 6.63364055 23.20564516 4 26 C2.68 26 1.36 26 0 26 C0 17.42 0 8.84 0 0 Z " fill="#585757" transform="translate(590,241)"/>
<path d="M0 0 C1.65 0 3.3 0 5 0 C5.33 5.28 5.66 10.56 6 16 C6.73605469 14.845 7.47210938 13.69 8.23046875 12.5 C9.21523589 10.99940245 10.20096316 9.49943468 11.1875 8 C11.67025391 7.236875 12.15300781 6.47375 12.65039062 5.6875 C13.13056641 4.965625 13.61074219 4.24375 14.10546875 3.5 C14.54012451 2.8296875 14.97478027 2.159375 15.42260742 1.46875 C17 0 17 0 22 0 C22 8.58 22 17.16 22 26 C20.68 26 19.36 26 18 26 C17.67 20.06 17.34 14.12 17 8 C15.7625 9.85625 14.525 11.7125 13.25 13.625 C11.83333333 15.75 10.41666667 17.875 9 20 C8.35546875 21.12148437 7.7109375 22.24296875 7.046875 23.3984375 C6.37140625 24.25695312 5.6959375 25.11546875 5 26 C3.35 26 1.7 26 0 26 C0 17.42 0 8.84 0 0 Z " fill="#585757" transform="translate(370,147)"/>
<path d="M0 0 C1.32 0 2.64 0 4 0 C4.33 5.94 4.66 11.88 5 18 C6.051875 16.329375 7.10375 14.65875 8.1875 12.9375 C8.82816406 11.93976563 9.46882812 10.94203125 10.12890625 9.9140625 C11.23601749 8.18983497 12.3319312 6.45818472 13.40234375 4.7109375 C14.625 2.8125 14.625 2.8125 17 0 C18.65 0 20.3 0 22 0 C22 8.58 22 17.16 22 26 C20.35 26 18.7 26 17 26 C16.67 20.39 16.34 14.78 16 9 C14.35276274 11.45740296 12.70715536 13.91587001 11.0625 16.375 C10.59392578 17.07367188 10.12535156 17.77234375 9.64257812 18.4921875 C9.19462891 19.1625 8.74667969 19.8328125 8.28515625 20.5234375 C7.87144775 21.14138184 7.45773926 21.75932617 7.03149414 22.39599609 C5.94056583 24.02917268 5.94056583 24.02917268 5 26 C3.35 26 1.7 26 0 26 C0 17.42 0 8.84 0 0 Z " fill="#595858" transform="translate(691,194)"/>
<path d="M0 0 C11 0 11 0 14.625 1.5625 C17 4 17 4 18.125 7.4375 C18 11 18 11 16.625 13.875 C12.81785162 16.95697726 9.84867541 16.78608785 5 17 C5 20.3 5 23.6 5 27 C3.35 27 1.7 27 0 27 C0 18.09 0 9.18 0 0 Z " fill="#5C5B5B" transform="translate(861,193)"/>
<path d="M0 0 C1.65 0 3.3 0 5 0 C5 3.3 5 6.6 5 10 C6.5778125 9.9071875 6.5778125 9.9071875 8.1875 9.8125 C14.10344828 10.10344828 14.10344828 10.10344828 17 13 C17.60187026 16.07813649 17.66689111 18.93230091 17 22 C15.42716295 23.92235639 14.22226275 24.88886863 12 26 C8.04 26 4.08 26 0 26 C0 17.42 0 8.84 0 0 Z " fill="#565555" transform="translate(661,194)"/>
<path d="M0 0 C1.65 0 3.3 0 5 0 C6.21210042 2.89115755 7.41971418 5.78405469 8.62109375 8.6796875 C9.48105356 10.75041226 10.3471834 12.81859856 11.22265625 14.8828125 C11.58230469 15.74648437 11.94195312 16.61015625 12.3125 17.5 C12.80169922 18.66015625 12.80169922 18.66015625 13.30078125 19.84375 C14 22 14 22 14 26 C12.68 26 11.36 26 10 26 C9.34 24.35 8.68 22.7 8 21 C4.37 21 0.74 21 -3 21 C-3.99 23.475 -3.99 23.475 -5 26 C-6.32 26 -7.64 26 -9 26 C-7.49234842 16.78657365 -3.66080856 8.52557288 0 0 Z " fill="#525151" transform="translate(474,194)"/>
<path d="M0 0 C1.32 0 2.64 0 4 0 C4.33 5.94 4.66 11.88 5 18 C6.051875 16.329375 7.10375 14.65875 8.1875 12.9375 C8.82816406 11.93976563 9.46882812 10.94203125 10.12890625 9.9140625 C11.23601749 8.18983497 12.3319312 6.45818472 13.40234375 4.7109375 C14.625 2.8125 14.625 2.8125 17 0 C18.65 0 20.3 0 22 0 C22 8.58 22 17.16 22 26 C20.68 26 19.36 26 18 26 C17.67 20.06 17.34 14.12 17 8 C16.19175781 9.299375 15.38351562 10.59875 14.55078125 11.9375 C13.47227866 13.62559101 12.39280071 15.31305914 11.3125 17 C10.78205078 17.85851562 10.25160156 18.71703125 9.70507812 19.6015625 C9.17978516 20.41367187 8.65449219 21.22578125 8.11328125 22.0625 C7.63673096 22.81660156 7.16018066 23.57070313 6.66918945 24.34765625 C5 26 5 26 0 26 C0 17.42 0 8.84 0 0 Z " fill="#504F4F" transform="translate(837,241)"/>
<path d="M0 0 C1.32 0 2.64 0 4 0 C4.33 5.94 4.66 11.88 5 18 C6.051875 16.329375 7.10375 14.65875 8.1875 12.9375 C8.82816406 11.93976563 9.46882812 10.94203125 10.12890625 9.9140625 C11.23601749 8.18983497 12.3319312 6.45818472 13.40234375 4.7109375 C14.625 2.8125 14.625 2.8125 17 0 C18.65 0 20.3 0 22 0 C22 8.58 22 17.16 22 26 C20.68 26 19.36 26 18 26 C17.67 20.06 17.34 14.12 17 8 C16.19175781 9.299375 15.38351562 10.59875 14.55078125 11.9375 C13.47227866 13.62559101 12.39280071 15.31305914 11.3125 17 C10.78205078 17.85851562 10.25160156 18.71703125 9.70507812 19.6015625 C9.17978516 20.41367188 8.65449219 21.22578125 8.11328125 22.0625 C7.63673096 22.81660156 7.16018066 23.57070312 6.66918945 24.34765625 C5 26 5 26 0 26 C0 17.42 0 8.84 0 0 Z " fill="#515050" transform="translate(789,194)"/>
<path d="M0 0 C1.32 0 2.64 0 4 0 C4.33 5.61 4.66 11.22 5 17 C6.21236328 15.15921875 6.21236328 15.15921875 7.44921875 13.28125 C8.5277527 11.68689546 9.607229 10.0931781 10.6875 8.5 C11.21794922 7.68917969 11.74839844 6.87835938 12.29492188 6.04296875 C12.82021484 5.27597656 13.34550781 4.50898438 13.88671875 3.71875 C14.36326904 3.00654297 14.83981934 2.29433594 15.33081055 1.56054688 C17 0 17 0 22 0 C22 8.58 22 17.16 22 26 C20.68 26 19.36 26 18 26 C17.505 16.595 17.505 16.595 17 7 C15.4221875 9.475 15.4221875 9.475 13.8125 12 C13.17183594 12.99644531 12.53117188 13.99289063 11.87109375 15.01953125 C10.737928 16.8245531 9.63660531 18.65087127 8.59765625 20.51171875 C8.19417969 21.22972656 7.79070313 21.94773438 7.375 22.6875 C7.03210938 23.33074219 6.68921875 23.97398437 6.3359375 24.63671875 C5.89507813 25.08660156 5.45421875 25.53648437 5 26 C3.35 26 1.7 26 0 26 C0 17.42 0 8.84 0 0 Z " fill="#515050" transform="translate(522,147)"/>
<path d="M0 0 C1.32 0 2.64 0 4 0 C4.33 5.94 4.66 11.88 5 18 C5.80824219 16.700625 6.61648438 15.40125 7.44921875 14.0625 C8.52772134 12.37440899 9.60719929 10.68694086 10.6875 9 C11.21794922 8.14148438 11.74839844 7.28296875 12.29492188 6.3984375 C12.82021484 5.58632812 13.34550781 4.77421875 13.88671875 3.9375 C14.36326904 3.18339844 14.83981934 2.42929688 15.33081055 1.65234375 C17 0 17 0 22 0 C22 8.58 22 17.16 22 26 C20.68 26 19.36 26 18 26 C17.67 20.06 17.34 14.12 17 8 C16.19175781 9.299375 15.38351562 10.59875 14.55078125 11.9375 C13.47227866 13.62559101 12.39280071 15.31305914 11.3125 17 C10.78205078 17.85851562 10.25160156 18.71703125 9.70507812 19.6015625 C9.17978516 20.41367188 8.65449219 21.22578125 8.11328125 22.0625 C7.63673096 22.81660156 7.16018066 23.57070312 6.66918945 24.34765625 C5 26 5 26 0 26 C0 17.42 0 8.84 0 0 Z " fill="#515050" transform="translate(422,147)"/>
<path d="M0 0 C1.32 0 2.64 0 4 0 C4.33 5.61 4.66 11.22 5 17 C5.69867187 15.94039063 6.39734375 14.88078125 7.1171875 13.7890625 C8.03633601 12.40096066 8.95561356 11.01294426 9.875 9.625 C10.33519531 8.92632812 10.79539062 8.22765625 11.26953125 7.5078125 C11.93662109 6.50234375 11.93662109 6.50234375 12.6171875 5.4765625 C13.02565918 4.85861816 13.43413086 4.24067383 13.85498047 3.60400391 C15 2 15 2 17 0 C18.32 0 19.64 0 21 0 C21 8.58 21 17.16 21 26 C19.68 26 18.36 26 17 26 C16.67 20.39 16.34 14.78 16 9 C15.18015625 10.2271875 14.3603125 11.454375 13.515625 12.71875 C12.42779397 14.31298513 11.33921329 15.90670893 10.25 17.5 C9.71117187 18.31082031 9.17234375 19.12164062 8.6171875 19.95703125 C8.08867188 20.72402344 7.56015625 21.49101562 7.015625 22.28125 C6.53383789 22.99345703 6.05205078 23.70566406 5.55566406 24.43945312 C5.04229492 24.95443359 4.52892578 25.46941406 4 26 C2.68 26 1.36 26 0 26 C0 17.42 0 8.84 0 0 Z " fill="#504F4F" transform="translate(865,241)"/>
<path d="M0 0 C1.32 0 2.64 0 4 0 C4.33 5.61 4.66 11.22 5 17 C5.73605469 15.85660156 6.47210937 14.71320313 7.23046875 13.53515625 C8.21535904 12.04375095 9.20107966 10.55289376 10.1875 9.0625 C10.67025391 8.30775391 11.15300781 7.55300781 11.65039062 6.77539062 C12.13056641 6.05673828 12.61074219 5.33808594 13.10546875 4.59765625 C13.54012451 3.93258057 13.97478027 3.26750488 14.42260742 2.58227539 C16 1 16 1 21 0 C21 8.58 21 17.16 21 26 C19.68 26 18.36 26 17 26 C16.67 20.39 16.34 14.78 16 9 C15.26394531 10.14339844 14.52789063 11.28679687 13.76953125 12.46484375 C12.78464096 13.95624905 11.79892034 15.44710624 10.8125 16.9375 C10.32974609 17.69224609 9.84699219 18.44699219 9.34960938 19.22460938 C8.86943359 19.94326172 8.38925781 20.66191406 7.89453125 21.40234375 C7.45987549 22.06741943 7.02521973 22.73249512 6.57739258 23.41772461 C5 25 5 25 0 26 C0 17.42 0 8.84 0 0 Z " fill="#504F4F" transform="translate(551,147)"/>
<path d="M0 0 C1.65 0 3.3 0 5 0 C5 3.3 5 6.6 5 10 C8.96 10 12.92 10 17 10 C17 6.7 17 3.4 17 0 C18.65 0 20.3 0 22 0 C22 8.58 22 17.16 22 26 C20.68 26 19.36 26 18 26 C18 22.04 18 18.08 18 14 C13.71 14 9.42 14 5 14 C5 17.96 5 21.92 5 26 C3.35 26 1.7 26 0 26 C0 17.42 0 8.84 0 0 Z " fill="#575656" transform="translate(632,194)"/>
<path d="M0 0 C1.32 0 2.64 0 4 0 C4.33 5.61 4.66 11.22 5 17 C5.73605469 15.7728125 6.47210938 14.545625 7.23046875 13.28125 C8.21520348 11.68691758 9.20093245 10.09319894 10.1875 8.5 C10.67025391 7.68917969 11.15300781 6.87835938 11.65039062 6.04296875 C12.13056641 5.27597656 12.61074219 4.50898438 13.10546875 3.71875 C13.54012451 3.00654297 13.97478027 2.29433594 14.42260742 1.56054688 C16 0 16 0 21 0 C21 8.58 21 17.16 21 26 C19.68 26 18.36 26 17 26 C16.67 20.06 16.34 14.12 16 8 C14.4221875 10.5059375 14.4221875 10.5059375 12.8125 13.0625 C11.54345974 15.04281686 10.2726904 17.022027 9 19 C8.525625 19.75539063 8.05125 20.51078125 7.5625 21.2890625 C6.3125 23.1875 6.3125 23.1875 4 26 C2.68 26 1.36 26 0 26 C0 17.42 0 8.84 0 0 Z " fill="#504F4F" transform="translate(440,241)"/>
<path d="M0 0 C12 0 12 0 15.25 1.5625 C17.66053174 4.92002635 17.57804541 6.95368213 17 11 C15.23984869 14.1850357 14.50109084 14.83296972 11 16 C8.66700175 16.03954234 6.33291811 16.04401732 4 16 C4 19.3 4 22.6 4 26 C2.68 26 1.36 26 0 26 C0 17.42 0 8.84 0 0 Z " fill="#4C4B4B" transform="translate(493,194)"/>
<path d="M0 0 C1.32 0 2.64 0 4 0 C4.33 5.28 4.66 10.56 5 16 C5.73605469 14.845 6.47210937 13.69 7.23046875 12.5 C8.21523589 10.99940245 9.20096316 9.49943468 10.1875 8 C10.67025391 7.236875 11.15300781 6.47375 11.65039062 5.6875 C12.13056641 4.965625 12.61074219 4.24375 13.10546875 3.5 C13.54012451 2.8296875 13.97478027 2.159375 14.42260742 1.46875 C16 0 16 0 21 0 C21 8.25 21 16.5 21 25 C19.68 25 18.36 25 17 25 C16.67 19.39 16.34 13.78 16 8 C15.26394531 9.14339844 14.52789063 10.28679687 13.76953125 11.46484375 C12.78464096 12.95624905 11.79892034 14.44710624 10.8125 15.9375 C10.32974609 16.69224609 9.84699219 17.44699219 9.34960938 18.22460938 C8.86943359 18.94326172 8.38925781 19.66191406 7.89453125 20.40234375 C7.45987549 21.06741943 7.02521973 21.73249512 6.57739258 22.41772461 C5 24 5 24 0 25 C0 16.75 0 8.5 0 0 Z " fill="#4F4E4E" transform="translate(908,194)"/>
<path d="M0 0 C12.4 0 12.4 0 16 3 C17 4 17 4 17.375 7.25 C17 11 17 11 15 13.9375 C10.96968211 16.70834355 8.80160858 16.40691598 4 16 C4 19.3 4 22.6 4 26 C2.68 26 1.36 26 0 26 C0 17.42 0 8.84 0 0 Z " fill="#4A4949" transform="translate(451,147)"/>
<path d="M0 0 C1.65 0 3.3 0 5 0 C5 3.3 5 6.6 5 10 C9.29 10 13.58 10 18 10 C18 6.7 18 3.4 18 0 C19.32 0 20.64 0 22 0 C22 8.58 22 17.16 22 26 C20.68 26 19.36 26 18 26 C18 22.04 18 18.08 18 14 C13.71 14 9.42 14 5 14 C5 17.96 5 21.92 5 26 C3.35 26 1.7 26 0 26 C0 17.42 0 8.84 0 0 Z " fill="#555454" transform="translate(603,194)"/>
<path d="M0 0 C4.49524833 0.88299521 5.93952397 1.88558105 8.5 5.6875 C9.43264345 10.21163886 9.07023434 13.59265008 6.9375 17.6875 C3.68156016 20.35904038 1.70155864 20.83492311 -2.5 20.6875 C-6.37953855 17.5670016 -8.3044637 15.38214794 -8.875 10.4375 C-8.28890656 4.57656557 -6.12588796 1.20329942 0 0 Z " fill="#F7F7F7" transform="translate(396.5,243.3125)"/>
<path d="M0 0 C5.36099727 1.65703552 5.36099727 1.65703552 7.4375 5.0625 C8.35010975 10.15933938 8.25870876 13.8182443 5.375 18.1875 C1.67153958 20.55141091 -0.24767943 20.84701283 -4.5625 20.0625 C-7.40248954 17.87789266 -8.3636725 16.20669597 -8.9765625 12.6796875 C-9.23268753 8.16379879 -8.99663557 5.73343679 -6.5 1.875 C-3.5625 0.0625 -3.5625 0.0625 0 0 Z " fill="#F8F8F8" transform="translate(799.5625,243.9375)"/>
<path d="M0 0 C2.875 1.3125 2.875 1.3125 5 4 C5.85003189 8.87105228 6.0042942 13.31278574 3.4375 17.625 C0.11223492 19.50079056 -2.16888876 20.06721248 -6 20 C-8.9375 18.1875 -8.9375 18.1875 -11 15 C-11.69985877 11.52346577 -11.70657247 8.47588071 -11 5 C-7.92883052 0.48357429 -5.43434422 -1.01893954 0 0 Z " fill="#F9F9F9" transform="translate(379,197)"/>
<path d="M0 0 C2.5 1.3125 2.5 1.3125 4 4 C4.71283186 8.89329371 4.94774968 13.30194848 2.5 17.6875 C-1.069494 19.56148435 -4.06133194 19.89588556 -8 19 C-10.92581762 16.80563679 -11.81591964 15.1869348 -12.375 11.58203125 C-12.56275886 7.60975796 -12.49335479 4.86337087 -10.5 1.375 C-6.9315523 -0.58764624 -3.97819107 -0.75813887 0 0 Z " fill="#FAFAFA" transform="translate(746,245)"/>
<path d="M0 0 C1.65 0 3.3 0 5 0 C5.33 3.3 5.66 6.6 6 10 C6.51949219 9.278125 7.03898437 8.55625 7.57421875 7.8125 C8.27160156 6.884375 8.96898437 5.95625 9.6875 5 C10.37199219 4.071875 11.05648438 3.14375 11.76171875 2.1875 C14 0 14 0 16.76953125 -0.3125 C17.50558594 -0.209375 18.24164062 -0.10625 19 0 C18.59007812 0.51949219 18.18015625 1.03898438 17.7578125 1.57421875 C17.21898437 2.27160156 16.68015625 2.96898437 16.125 3.6875 C15.59132813 4.37199219 15.05765625 5.05648437 14.5078125 5.76171875 C12.21065418 9.14153799 12.21065418 9.14153799 11 13 C12.37339649 15.38378069 13.62383006 17.1850366 15.375 19.25 C20 24.96323529 20 24.96323529 20 26 C17.2734375 26.34375 17.2734375 26.34375 14 26 C11.6640625 23.59375 11.6640625 23.59375 9.625 20.5 C8.93664062 19.4790625 8.24828125 18.458125 7.5390625 17.40625 C7.03117187 16.6121875 6.52328125 15.818125 6 15 C5.67 18.63 5.34 22.26 5 26 C3.35 26 1.7 26 0 26 C0 17.42 0 8.84 0 0 Z " fill="#605F5F" transform="translate(497,147)"/>
<path d="M0 0 C1.32 0 2.64 0 4 0 C4 3.3 4 6.6 4 10 C8.29 10 12.58 10 17 10 C17 6.7 17 3.4 17 0 C18.32 0 19.64 0 21 0 C21 8.58 21 17.16 21 26 C19.68 26 18.36 26 17 26 C17 22.04 17 18.08 17 14 C12.71 14 8.42 14 4 14 C4 17.96 4 21.92 4 26 C2.68 26 1.36 26 0 26 C0 17.42 0 8.84 0 0 Z " fill="#4B4A4A" transform="translate(762,194)"/>
<path d="M0 0 C4.95 0 9.9 0 15 0 C15 1.32 15 2.64 15 4 C11.7 4 8.4 4 5 4 C5 6.31 5 8.62 5 11 C7.97 11 10.94 11 14 11 C14 12.32 14 13.64 14 15 C11.03 15 8.06 15 5 15 C5 17.64 5 20.28 5 23 C8.3 23 11.6 23 15 23 C15 24.32 15 25.64 15 27 C10.05 27 5.1 27 0 27 C0 18.09 0 9.18 0 0 Z " fill="#605F5F" transform="translate(840,193)"/>
<path d="M0 0 C2.26171875 -0.25 2.26171875 -0.25 5 0 C7.01953125 1.75 7.01953125 1.75 8.8125 4 C9.41707031 4.7425 10.02164063 5.485 10.64453125 6.25 C11.09183594 6.8275 11.53914062 7.405 12 8 C14.64752004 5.42215154 16.94432065 3.08351902 19 0 C21.625 -0.1875 21.625 -0.1875 24 0 C22.63629701 2.99220268 21.05091917 5.29026529 18.875 7.75 C18.33617187 8.36359375 17.79734375 8.9771875 17.2421875 9.609375 C16.83226562 10.06828125 16.42234375 10.5271875 16 11 C17.34526641 14.83197098 19.06371723 17.60900302 21.625 20.75 C25 24.91020408 25 24.91020408 25 26 C22.73828125 26.28125 22.73828125 26.28125 20 26 C17.98046875 24.03125 17.98046875 24.03125 16.1875 21.5 C15.58292969 20.6646875 14.97835937 19.829375 14.35546875 18.96875 C13.90816406 18.3190625 13.46085938 17.669375 13 17 C9.46294675 20.414531 9.46294675 20.414531 6.5 24.3125 C5 26 5 26 2.3125 26.25 C1.549375 26.1675 0.78625 26.085 0 26 C1.74507649 22.17785687 4.15167358 19.28268897 6.85546875 16.09765625 C8.2150415 14.03358034 8.2150415 14.03358034 7.8984375 11.51171875 C6.85911995 8.60614839 5.54963973 6.98588125 3.4375 4.75 C0 1.07042254 0 1.07042254 0 0 Z " fill="#525151" transform="translate(675,241)"/>
<path d="M0 0 C1.32 0 2.64 0 4 0 C4 3.63 4 7.26 4 11 C8.29 11 12.58 11 17 11 C17 7.37 17 3.74 17 0 C18.32 0 19.64 0 21 0 C21 8.58 21 17.16 21 26 C19.68 26 18.36 26 17 26 C17 22.04 17 18.08 17 14 C12.71 14 8.42 14 4 14 C4 17.96 4 21.92 4 26 C2.68 26 1.36 26 0 26 C0 17.42 0 8.84 0 0 Z " fill="#474646" transform="translate(703,241)"/>
<path d="M0 0 C4.62 0 9.24 0 14 0 C14 1.32 14 2.64 14 4 C11.03 4 8.06 4 5 4 C5 5.98 5 7.96 5 10 C7.64 10 10.28 10 13 10 C13 11.32 13 12.64 13 14 C10.36 14 7.72 14 5 14 C5 16.64 5 19.28 5 22 C8.3 22 11.6 22 15 22 C15 23.32 15 24.64 15 26 C10.05 26 5.1 26 0 26 C0 17.42 0 8.84 0 0 Z " fill="#595858" transform="translate(365,241)"/>
<path d="M0 0 C4.62 0 9.24 0 14 0 C14 1.32 14 2.64 14 4 C11.03 4 8.06 4 5 4 C5 5.98 5 7.96 5 10 C7.64 10 10.28 10 13 10 C13 11.32 13 12.64 13 14 C10.36 14 7.72 14 5 14 C5 16.64 5 19.28 5 22 C8.3 22 11.6 22 15 22 C15 23.32 15 24.64 15 26 C10.05 26 5.1 26 0 26 C0 17.42 0 8.84 0 0 Z " fill="#595858" transform="translate(583,194)"/>
<path d="M0 0 C4.95 0 9.9 0 15 0 C15 1.32 15 2.64 15 4 C11.7 4 8.4 4 5 4 C5 6.31 5 8.62 5 11 C7.64 11 10.28 11 13 11 C13 11.99 13 12.98 13 14 C10.36 14 7.72 14 5 14 C5 16.64 5 19.28 5 22 C8.3 22 11.6 22 15 22 C15 23.32 15 24.64 15 26 C10.05 26 5.1 26 0 26 C0 17.42 0 8.84 0 0 Z " fill="#585757" transform="translate(518,241)"/>
<path d="M0 0 C4.62 0 9.24 0 14 0 C14 1.32 14 2.64 14 4 C10.7 4 7.4 4 4 4 C4 5.98 4 7.96 4 10 C6.97 10 9.94 10 13 10 C13 11.32 13 12.64 13 14 C10.03 14 7.06 14 4 14 C4 16.64 4 19.28 4 22 C7.3 22 10.6 22 14 22 C14 23.32 14 24.64 14 26 C9.38 26 4.76 26 0 26 C0 17.42 0 8.84 0 0 Z " fill="#525151" transform="translate(656,241)"/>
<path d="M0 0 C0.886875 -0.00257813 1.77375 -0.00515625 2.6875 -0.0078125 C5 0.125 5 0.125 7 1.125 C6.67 2.445 6.34 3.765 6 5.125 C5.31292969 5.09019531 4.62585938 5.05539063 3.91796875 5.01953125 C2.56638672 4.97892578 2.56638672 4.97892578 1.1875 4.9375 C-0.15248047 4.88529297 -0.15248047 4.88529297 -1.51953125 4.83203125 C-4.01232207 4.9360781 -4.01232207 4.9360781 -5.80078125 6.328125 C-7.37432431 8.68587682 -7.40044115 10.2427721 -7.375 13.0625 C-7.38273438 13.91714844 -7.39046875 14.77179688 -7.3984375 15.65234375 C-6.9096917 18.68544267 -6.25631687 20.03225408 -4 22.125 C-1.2613775 22.60840432 -1.2613775 22.60840432 1.6875 22.375 C2.68136719 22.33890625 3.67523437 22.3028125 4.69921875 22.265625 C5.45847656 22.21921875 6.21773437 22.1728125 7 22.125 C7.33 23.115 7.66 24.105 8 25.125 C3.85747753 27.13349574 0.5849842 27.60762992 -4 27.125 C-8.8717278 24.6891361 -11.24582077 22.29008328 -13 17.125 C-13.7402765 13.02730783 -13.93901889 9.66705855 -11.72265625 6.02734375 C-8.01421283 1.61166662 -5.84977478 -0.01700516 0 0 Z " fill="#555454" transform="translate(895,192.875)"/>
<path d="M0 0 C2.4375 1 2.4375 1 4 2 C3.67 2.99 3.34 3.98 3 5 C2.09507812 4.93039063 2.09507812 4.93039063 1.171875 4.859375 C-3.910282 4.6225677 -3.910282 4.6225677 -8.5625 6.4375 C-10.65689183 10.17098109 -10.81812883 13.81353895 -10 18 C-8.94358525 20.34607032 -8.94358525 20.34607032 -7 22 C-4.2613775 22.48340432 -4.2613775 22.48340432 -1.3125 22.25 C-0.31863281 22.21390625 0.67523438 22.1778125 1.69921875 22.140625 C2.45847656 22.09421875 3.21773438 22.0478125 4 22 C4 23.32 4 24.64 4 26 C-0.07123523 27.35707841 -3.74737998 27.6603898 -8 27 C-11.55276493 25.05872127 -13.76201421 22.35697869 -16 19 C-16.73176768 14.05631368 -16.52245588 10.06426199 -14.3125 5.5625 C-9.8759617 0.64633594 -6.65247253 -0.60477023 0 0 Z " fill="#565555" transform="translate(409,193)"/>
<path d="M0 0 C0.7734375 0.495 0.7734375 0.495 1.5625 1 C1.2325 1.99 0.9025 2.98 0.5625 4 C-0.12457031 3.96519531 -0.81164062 3.93039063 -1.51953125 3.89453125 C-2.87111328 3.85392578 -2.87111328 3.85392578 -4.25 3.8125 C-5.58998047 3.76029297 -5.58998047 3.76029297 -6.95703125 3.70703125 C-9.44382372 3.81584535 -9.44382372 3.81584535 -11.2421875 5.16796875 C-12.88845375 7.69116768 -12.80227317 9.50836644 -12.75 12.5 C-12.74613281 13.4590625 -12.74226563 14.418125 -12.73828125 15.40625 C-12.60967748 18.2348262 -12.60967748 18.2348262 -10.4375 21 C-7.54141601 21.36498034 -7.54141601 21.36498034 -4.3125 21.1875 C-3.21679688 21.16042969 -2.12109375 21.13335937 -0.9921875 21.10546875 C-0.14914062 21.07066406 0.69390625 21.03585938 1.5625 21 C1.8925 21.99 2.2225 22.98 2.5625 24 C-1.99131303 26.6292223 -6.29581913 26.67500186 -11.4375 26 C-14.53181608 24.2594472 -15.90571456 22.86098594 -17.75 19.875 C-18.90670552 15.03786784 -19.80956459 9.67306607 -17.45703125 5.08984375 C-12.83310741 -0.70073165 -7.15430605 -2.93509992 0 0 Z " fill="#575656" transform="translate(363.4375,147)"/>
<path d="M0 0 C0.99 0.66 1.98 1.32 3 2 C2.67 2.99 2.34 3.98 2 5 C0.96939453 4.93039063 0.96939453 4.93039063 -0.08203125 4.859375 C-0.98308594 4.82328125 -1.88414062 4.7871875 -2.8125 4.75 C-4.15248047 4.68039063 -4.15248047 4.68039063 -5.51953125 4.609375 C-8.11018838 4.77450389 -8.11018838 4.77450389 -9.80078125 6.734375 C-11.11644706 9.2199977 -11.40370007 10.70652626 -11.375 13.5 C-11.38273437 14.2528125 -11.39046875 15.005625 -11.3984375 15.78125 C-10.88190818 18.65760935 -10.12570194 19.9876084 -8 22 C-5.2613775 22.48340432 -5.2613775 22.48340432 -2.3125 22.25 C-1.31863281 22.21390625 -0.32476562 22.1778125 0.69921875 22.140625 C1.45847656 22.09421875 2.21773438 22.0478125 3 22 C3 23.32 3 24.64 3 26 C-1.07752122 27.35917374 -4.74064326 27.64689889 -9 27 C-12.34471144 25.29941887 -14.45411713 22.91807574 -16.375 19.6875 C-17.62921278 14.29438505 -17.8076955 10.58547635 -15.3125 5.6875 C-10.57690173 0.18396688 -7.00327132 -0.56477994 0 0 Z " fill="#555454" transform="translate(483,240)"/>
<path d="M0 0 C4.62 0 9.24 0 14 0 C14 0.99 14 1.98 14 3 C10.7 3 7.4 3 4 3 C4 5.31 4 7.62 4 10 C6.97 10 9.94 10 13 10 C13 11.32 13 12.64 13 14 C10.03 14 7.06 14 4 14 C4 16.64 4 19.28 4 22 C7.3 22 10.6 22 14 22 C14 23.32 14 24.64 14 26 C9.38 26 4.76 26 0 26 C0 17.42 0 8.84 0 0 Z " fill="#504F4F" transform="translate(960,194)"/>
<path d="M0 0 C0.7734375 0.495 0.7734375 0.495 1.5625 1 C1.2325 1.99 0.9025 2.98 0.5625 4 C-0.11296875 3.94199219 -0.7884375 3.88398438 -1.484375 3.82421875 C-7.17275929 3.46845646 -7.17275929 3.46845646 -12.125 5.9375 C-13.92759141 10.14354662 -13.603266 13.61606307 -12.4375 18 C-11.7775 18.99 -11.1175 19.98 -10.4375 21 C-7.54141601 21.36498034 -7.54141601 21.36498034 -4.3125 21.1875 C-3.21679688 21.16042969 -2.12109375 21.13335937 -0.9921875 21.10546875 C-0.14914062 21.07066406 0.69390625 21.03585938 1.5625 21 C1.8925 21.99 2.2225 22.98 2.5625 24 C-1.99131303 26.6292223 -6.29581913 26.67500186 -11.4375 26 C-14.53181608 24.2594472 -15.90571456 22.86098594 -17.75 19.875 C-18.90670552 15.03786784 -19.80956459 9.67306607 -17.45703125 5.08984375 C-12.83310741 -0.70073165 -7.15430605 -2.93509992 0 0 Z " fill="#545353" transform="translate(532.4375,194)"/>
<path d="M0 0 C0.886875 -0.00257813 1.77375 -0.00515625 2.6875 -0.0078125 C5 0.125 5 0.125 7 1.125 C6.67 2.445 6.34 3.765 6 5.125 C5.38511719 5.04121094 4.77023437 4.95742187 4.13671875 4.87109375 C3.32847656 4.76925781 2.52023437 4.66742188 1.6875 4.5625 C0.88699219 4.45808594 0.08648437 4.35367188 -0.73828125 4.24609375 C-3.16817116 3.97744822 -3.16817116 3.97744822 -6 5.125 C-7.44537752 9.46113257 -7.52654485 13.59374783 -7 18.125 C-5.57955419 20.88109295 -5.57955419 20.88109295 -3 22.125 C0.55615217 22.49543252 3.59019864 22.17416965 7 21.125 C7.33 22.115 7.66 23.105 8 24.125 C3.89688443 27.10908405 1.04187047 27.74417707 -4 27.125 C-8.33833918 24.87240081 -11.20287362 22.7176563 -13 18.125 C-13.73650973 13.75057858 -14.02973445 9.87271444 -11.72265625 5.95703125 C-8.02774689 1.57553727 -5.80431823 -0.01687302 0 0 Z " fill="#555454" transform="translate(427,240.875)"/>
<path d="M0 0 C0.7734375 0.495 0.7734375 0.495 1.5625 1 C1.2325 1.99 0.9025 2.98 0.5625 4 C-0.11296875 3.94199219 -0.7884375 3.88398438 -1.484375 3.82421875 C-7.19612893 3.43332711 -7.19612893 3.43332711 -12.0625 6.0625 C-13.77267367 9.71605284 -13.93709513 12.00323897 -13.4375 16 C-12.5530391 18.94707246 -12.5530391 18.94707246 -10.4375 21 C-6.14767489 22.11217688 -2.7052204 22.16392375 1.5625 21 C1.1875 22.9375 1.1875 22.9375 0.5625 25 C-3.13971166 26.85110583 -7.39656917 26.46454795 -11.4375 26 C-15.09205046 23.8681789 -16.85021086 21.86171644 -18.4375 18 C-19.06285941 13.64223235 -19.45122641 9.04764658 -17.45703125 5.01953125 C-12.84391284 -0.729124 -7.09107895 -2.9091606 0 0 Z " fill="#515050" transform="translate(490.4375,147)"/>
<path d="M0 0 C2.32421875 0.18359375 2.32421875 0.18359375 5 1 C7.17922024 4.14776256 8.43997473 7.47880011 10 11 C11.65 7.37 13.3 3.74 15 0 C16.32 0 17.64 0 19 0 C18.30723245 4.66706562 16.6125297 8.70429321 14.75 13 C14.46253906 13.69867188 14.17507813 14.39734375 13.87890625 15.1171875 C11.93462846 19.61704439 9.85453644 22.81152746 6 26 C3.1875 26.3125 3.1875 26.3125 1 26 C1 24.68 1 23.36 1 22 C2.65 21.34 4.3 20.68 6 20 C5.57534294 12.63927766 3.01651083 6.67862176 0 0 Z " fill="#545353" transform="translate(417,194)"/>
<path d="M0 0 C6.27 0 12.54 0 19 0 C19 1.32 19 2.64 19 4 C16.69 4 14.38 4 12 4 C12 11.26 12 18.52 12 26 C10.35 26 8.7 26 7 26 C7 18.74 7 11.48 7 4 C4.69 4 2.38 4 0 4 C0 2.68 0 1.36 0 0 Z " fill="#5C5B5B" transform="translate(631,241)"/>
<path d="M0 0 C6.27 0 12.54 0 19 0 C19 1.32 19 2.64 19 4 C16.69 4 14.38 4 12 4 C12 11.26 12 18.52 12 26 C10.35 26 8.7 26 7 26 C7 18.74 7 11.48 7 4 C4.69 4 2.38 4 0 4 C0 2.68 0 1.36 0 0 Z " fill="#5C5B5B" transform="translate(537,194)"/>
<path d="M0 0 C2.35546875 0.18359375 2.35546875 0.18359375 5 1 C6.36328125 3.28515625 6.36328125 3.28515625 7.3125 6.0625 C7.63863281 6.98160156 7.96476563 7.90070313 8.30078125 8.84765625 C8.53152344 9.55792969 8.76226563 10.26820313 9 11 C10.58971965 8.61542052 11.86741593 6.3695876 13.125 3.8125 C13.47820313 3.09707031 13.83140625 2.38164062 14.1953125 1.64453125 C14.46085938 1.10183594 14.72640625 0.55914062 15 0 C16.32 0 17.64 0 19 0 C17.46889863 4.83585483 15.62806124 9.47133618 13.625 14.125 C13.33367188 14.82753906 13.04234375 15.53007812 12.7421875 16.25390625 C11.0382032 20.20744877 9.47431897 23.2791478 6 26 C3.25 26.25 3.25 26.25 1 26 C1 24.68 1 23.36 1 22 C2.32 21.67 3.64 21.34 5 21 C6.3964097 15.73354054 5.50049071 13.04858489 3.0625 8.25 C0 2.13895216 0 2.13895216 0 0 Z " fill="#525151" transform="translate(737,194)"/>
<path d="M0 0 C6.27 0 12.54 0 19 0 C19 1.32 19 2.64 19 4 C16.69 4 14.38 4 12 4 C12 11.26 12 18.52 12 26 C10.35 26 8.7 26 7 26 C7 18.41 7 10.82 7 3 C4.69 3 2.38 3 0 3 C0 2.01 0 1.02 0 0 Z " fill="#595959" transform="translate(935,194)"/>
<path d="M0 0 C4.95 0 9.9 0 15 0 C15 1.32 15 2.64 15 4 C11.7 4 8.4 4 5 4 C5 11.26 5 18.52 5 26 C3.35 26 1.7 26 0 26 C0 17.42 0 8.84 0 0 Z " fill="#5C5B5B" transform="translate(346,241)"/>
<path d="M0 0 C4.95 0 9.9 0 15 0 C15 1.32 15 2.64 15 4 C11.7 4 8.4 4 5 4 C5 11.26 5 18.52 5 26 C3.35 26 1.7 26 0 26 C0 17.42 0 8.84 0 0 Z " fill="#5C5B5B" transform="translate(346,194)"/>
<path d="M0 0 C6.6 0 13.2 0 20 0 C20 1.32 20 2.64 20 4 C17.36 4 14.72 4 12 4 C12 11.26 12 18.52 12 26 C10.68 26 9.36 26 8 26 C8 18.74 8 11.48 8 4 C5.36 4 2.72 4 0 4 C0 2.68 0 1.36 0 0 Z " fill="#525151" transform="translate(492,241)"/>
<path d="M0 0 C2.31 0 4.62 0 7 0 C7 6.27 7 12.54 7 19 C3.37 19 -0.26 19 -4 19 C-3.690625 18.2575 -3.38125 17.515 -3.0625 16.75 C-1.80614009 12.31578854 -1.52253861 8.09844669 -1.24609375 3.51171875 C-1 1 -1 1 0 0 Z " fill="#F5F5F5" transform="translate(447,197)"/>
<path d="M0 0 C5.94 0 11.88 0 18 0 C18 0.99 18 1.98 18 3 C15.69 3 13.38 3 11 3 C11 10.59 11 18.18 11 26 C9.68 26 8.36 26 7 26 C7 18.41 7 10.82 7 3 C4.69 3 2.38 3 0 3 C0 2.01 0 1.02 0 0 Z " fill="#474646" transform="translate(981,194)"/>
<path d="M0 0 C4.62 0 9.24 0 14 0 C14 1.32 14 2.64 14 4 C10.7 4 7.4 4 4 4 C4 11.26 4 18.52 4 26 C2.68 26 1.36 26 0 26 C0 17.42 0 8.84 0 0 Z " fill="#4F4E4E" transform="translate(817,241)"/>
<path d="M0 0 C1.65 0 3.3 0 5 0 C5 8.58 5 17.16 5 26 C3.35 26 1.7 26 0 26 C0 17.42 0 8.84 0 0 Z " fill="#5D5C5C" transform="translate(681,194)"/>
<path d="M0 0 C5.41139241 -0.36075949 5.41139241 -0.36075949 7.9375 1.1875 C9 3 9 3 8.8125 5.5625 C8 8 8 8 6 10 C2.875 10.125 2.875 10.125 0 10 C0 6.7 0 3.4 0 0 Z " fill="#E6E6E6" transform="translate(455,150)"/>
<path d="M0 0 C6.75 0.75 6.75 0.75 9 3 C8.67028521 6.29714793 8.3773161 7.6226839 6 10 C2.875 10.125 2.875 10.125 0 10 C0 6.7 0 3.4 0 0 Z " fill="#E7E7E7" transform="translate(497,197)"/>
<path d="M0 0 C0.99 0 1.98 0 3 0 C3.89073566 8.49624785 3.99418527 16.51118727 3 25 C2.01 25 1.02 25 0 25 C0 16.75 0 8.5 0 0 Z " fill="#444343" transform="translate(498,147)"/>
<path d="M0 0 C3.375 -0.125 3.375 -0.125 7 0 C9 2 9 2 9.1875 4.5625 C9 7 9 7 8 8 C5.32941149 8.14115161 2.67567762 8.04247107 0 8 C0 5.36 0 2.72 0 0 Z " fill="#F0F0F0" transform="translate(564,208)"/>
<path d="M0 0 C6.875 0.875 6.875 0.875 8 2 C8.125 5 8.125 5 8 8 C7 9 7 9 3.4375 9.0625 C2.303125 9.041875 1.16875 9.02125 0 9 C0 6.03 0 3.06 0 0 Z " fill="#F4F4F4" transform="translate(666,207)"/>
<path d="M0 0 C3.375 -0.125 3.375 -0.125 7 0 C7.66 0.66 8.32 1.32 9 2 C8.44444444 6.55555556 8.44444444 6.55555556 7 8 C4.66702567 8.04092937 2.33294775 8.04241723 0 8 C0 5.36 0 2.72 0 0 Z " fill="#F3F3F3" transform="translate(822,208)"/>
<path d="M0 0 C6.875 0.875 6.875 0.875 8 2 C8.1875 4.4375 8.1875 4.4375 8 7 C6 9 6 9 2.875 9.125 C1.451875 9.063125 1.451875 9.063125 0 9 C0 6.03 0 3.06 0 0 Z " fill="#F9F9F9" transform="translate(866,197)"/>
<path d="M0 0 C2.33294775 -0.04241723 4.66702567 -0.04092937 7 0 C8 1 8 1 8.125 4 C8 7 8 7 7 8 C4.66702567 8.04092937 2.33294775 8.04241723 0 8 C0 5.36 0 2.72 0 0 Z " fill="#FBFBFB" transform="translate(404,161)"/>
<path d="M0 0 C5.75 -0.125 5.75 -0.125 8 1 C8.125 3.375 8.125 3.375 8 6 C6 8 6 8 2.875 8.125 C1.451875 8.063125 1.451875 8.063125 0 8 C0 5.36 0 2.72 0 0 Z " fill="#E6E6E6" transform="translate(564,197)"/>
<path d="M0 0 C2 1 2 1 3.125 3.8125 C4 7 4 7 4 11 C1.36 11 -1.28 11 -4 11 C-3.5247412 9.35303396 -3.04468109 7.70745272 -2.5625 6.0625 C-2.29566406 5.14597656 -2.02882813 4.22945312 -1.75390625 3.28515625 C-1 1 -1 1 0 0 Z " fill="#E4E3E3" transform="translate(476,200)"/>
<path d="M0 0 C2.31 0.33 4.62 0.66 7 1 C7 2.98 7 4.96 7 7 C4.69 7 2.38 7 0 7 C0 4.69 0 2.38 0 0 Z " fill="#F7F7F7" transform="translate(822,197)"/>
<path d="M0 0 C0.86625 0.5259375 0.86625 0.5259375 1.75 1.0625 C4.41386776 2.1724449 5.33428337 1.94589945 8 1 C8.99 0.67 9.98 0.34 11 0 C10.125 3.875 10.125 3.875 9 5 C5.5625 5.1875 5.5625 5.1875 2 5 C1.34 4.34 0.68 3.68 0 3 C0 2.01 0 1.02 0 0 Z " fill="#666565" transform="translate(556,140)"/>
<path d="M0 0 C0.99 0.33 1.98 0.66 3 1 C3 1.66 3 2.32 3 3 C3.763125 2.690625 4.52625 2.38125 5.3125 2.0625 C7.18789677 1.32106407 9.08684652 0.63771783 11 0 C10.125 3.875 10.125 3.875 9 5 C5.5625 5.1875 5.5625 5.1875 2 5 C1.34 4.34 0.68 3.68 0 3 C0 2.01 0 1.02 0 0 Z " fill="#666565" transform="translate(870,234)"/>
<path d="M0 0 C0.33 0 0.66 0 1 0 C1 6.6 1 13.2 1 20 C0.67 20 0.34 20 0 20 C-0.33 15.38 -0.66 10.76 -1 6 C-1.99 6.66 -2.98 7.32 -4 8 C-2.87548273 5.0280615 -1.77706209 2.66559313 0 0 Z " fill="#E6E6E6" transform="translate(806,200)"/>
<path d="M0 0 C0.99 0 1.98 0 3 0 C3.33 0.66 3.66 1.32 4 2 C5.32 2 6.64 2 8 2 C8.33 1.34 8.66 0.68 9 0 C9.66 0 10.32 0 11 0 C10.125 3.875 10.125 3.875 9 5 C3.6360424 5.4664311 3.6360424 5.4664311 1.125 3.625 C0 2 0 2 0 0 Z " fill="#616060" transform="translate(696,187)"/>
<path d="M0 0 C0.33 0 0.66 0 1 0 C1 6.27 1 12.54 1 19 C0.67 19 0.34 19 0 19 C-0.33 14.38 -0.66 9.76 -1 5 C-1.99 5.66 -2.98 6.32 -4 7 C-2.92598892 4.08482708 -2.22189824 2.22189824 0 0 Z " fill="#D6D6D6" transform="translate(439,154)"/>
<path d="M0 0 C0.625 1.8125 0.625 1.8125 1 4 C0.01 5.485 0.01 5.485 -1 7 C-1.99 7 -2.98 7 -4 7 C-3.39816251 4.97954558 -2.72693904 2.97888961 -2 1 C-1.34 0.67 -0.68 0.34 0 0 Z " fill="#5B5A5A" transform="translate(559,251)"/>
<path d="M0 0 C0.99 0.495 0.99 0.495 2 1 C2.625 4.0625 2.625 4.0625 3 7 C2.01 7.33 1.02 7.66 0 8 C0 5.36 0 2.72 0 0 Z " fill="#D1D1D1" transform="translate(544,249)"/>
</svg>
